<svg version="1.1" class="outer" xmlns="http://www.w3.org/2000/svg" xmlns:xlink="http://www.w3.org/1999/xlink" x="0px" y="0px"
	 width="42px" height="48px" viewBox="0 0 42 48" enable-background="new 0 0 42 48" xml:space="preserve">

<path class="bell" d="M33,31.001c0,0.438-0.287,0.801-0.681,0.935c-0.095,0.037-0.198,0.065-0.318,0.065
	H16c-0.553,0-1-0.448-1-1c0-0.554,0.447-1,1-1h14.951c-0.501-5.054-4.765-9-9.951-9c-5.523,0-10,4.477-10,10c0,0,0.063,1-1,1
	c-1.062,0-1-1-1-1c0-5.77,4.071-10.582,9.495-11.735C18.189,18.746,18,18.149,18,17.501c0-1.934,1.567-3.5,3.5-3.5
	c1.932,0,3.499,1.567,3.499,3.5c0,0.739-0.233,1.423-0.625,1.989C29.359,20.949,33,25.546,33,31.001L33,31.001z M21.501,16.001
	c-0.829,0-1.501,0.67-1.501,1.499c0,0.828,0.672,1.5,1.501,1.5C22.329,19,23,18.328,23,17.5C23,16.671,22.329,16.001,21.501,16.001
	L21.501,16.001z"/>
</svg>
