<svg version="1.1" class="icon-container" xmlns="http://www.w3.org/2000/svg" xmlns:xlink="http://www.w3.org/1999/xlink" x="0px" y="0px"
	 width="42px" height="48px" viewBox="0 0 42 48" enable-background="new 0 0 42 48" xml:space="preserve">
<g class="icon-svg" >
	<path class="icon-svg" d="M6,29h0.051C6.019,29.162,6,29.329,6,29.5c0,1.379,1.122,2.499,2.5,2.499h25c1.38,0,2.5-1.12,2.5-2.499
		c0-0.171-0.019-0.338-0.051-0.5H36c0.006,0,0.014,0,0.021,0c0.552,0,1-0.448,1-1c0-0.071-0.008-0.14-0.022-0.207
		C36.888,19.065,29.754,12,21,12c-8.821,0-16,7.179-16,16C5,28.552,5.448,29,6,29z M33.5,29.999h-25C8.225,29.999,8,29.775,8,29.5
		C8,29.224,8.225,29,8.5,29h25c0.274,0,0.5,0.224,0.5,0.5C34,29.775,33.774,29.999,33.5,29.999z M21,14
		c7.383,0,13.45,5.746,13.965,13H33.5h-25H7.035C7.55,19.745,13.617,14,21,14z"/>
	<circle cx="18.5" cy="22.5" r="1.5"/>
	<path class="icon-svg" d="M36,31.999c-0.553,0-1,0.448-1,1c0,1.104-0.897,2-2,2H9c-1.102,0-2-0.896-2-2c0-0.552-0.446-1-1-1c-0.552,0-1,0.448-1,1
		C5,35.204,6.794,37,9,37h24c2.206,0,4-1.796,4-4.001C37,32.447,36.554,31.999,36,31.999z"/>
	<circle class="icon-svg" cx="24.5" cy="18.5" r="1.501"/>
	<circle class="icon-svg" cx="29.5" cy="22.5" r="1.5"/>
</g>
</svg>
