<svg version="1.1"  class="icon-container" xmlns="http://www.w3.org/2000/svg" xmlns:xlink="http://www.w3.org/1999/xlink" x="0px" y="0px"
	 width="42px" height="48px" viewBox="0 0 42 48" enable-background="new 0 0 42 48" xml:space="preserve">
<path class="icon-svg" d="M36.793,25.391C36.603,25.146,36.311,25,36,25H6c-0.311,0-0.603,0.146-0.793,0.391c-0.19,0.246-0.253,0.567-0.173,0.867
	l3.208,12.031C8.825,40.473,10.811,42,13.073,42h15.854c2.263,0,4.248-1.527,4.831-3.711l3.208-12.031
	C37.047,25.958,36.983,25.637,36.793,25.391z M31.826,37.773C31.477,39.085,30.283,40,28.927,40H13.073
	c-1.357,0-2.55-0.915-2.899-2.227L7.301,27h27.398L31.826,37.773z"/>
<path class="icon-svg" d="M7,23c0.554,0,1-0.448,1-1c0-3.458,2.987-6.273,6.661-6.273c0.207,0,0.413,0.012,0.617,0.031
	c0.323,0.023,0.641-0.105,0.852-0.355C17.404,13.875,19.311,13,21.361,13c1.477,0,2.875,0.448,4.046,1.295
	c0.445,0.323,1.071,0.223,1.396-0.224c0.325-0.446,0.223-1.072-0.224-1.396c-0.748-0.541-1.567-0.954-2.433-1.235
	C24.674,10.762,25,9.922,25,9c0-2.206-1.795-4-4-4c-2.206,0-4,1.794-4,4c0,1.018,0.394,1.939,1.023,2.646
	c-1.164,0.465-2.219,1.168-3.086,2.088c-0.091-0.004-0.184-0.006-0.276-0.006C9.885,13.728,6,17.438,6,22C6,22.552,6.448,23,7,23z
	 M21,7c1.102,0,2,0.896,2,2c0,1.103-0.898,2-2,2c-1.102,0-2-0.896-2-2C19,7.896,19.898,7,21,7z"/>
<path class="icon-svg" d="M23.049,18.313c-0.29,0.468-0.145,1.085,0.323,1.377c0.47,0.291,1.087,0.146,1.377-0.323C25.669,17.885,27.258,17,29.001,17
	C31.756,17,34,19.243,34,22c0,0.552,0.447,1,1,1c0.552,0,1-0.448,1-1c0-3.86-3.141-7.001-6.999-7.001
	C26.561,14.999,24.337,16.239,23.049,18.313z"/>
</svg>
