<svg version="1.1"  class="icon-container" xmlns="http://www.w3.org/2000/svg" xmlns:xlink="http://www.w3.org/1999/xlink" x="0px" y="0px"
	 width="42px" height="48px" viewBox="0 0 42 48" enable-background="new 0 0 42 48" xml:space="preserve">
<path class="icon-svg" d="M41.861,32.705c-0.311,0.756-1.041,1.245-1.86,1.245h-5.646c-0.563,0-1.021,0.452-1.021,1.008v2.512
	c0,1.938-1.582,3.514-3.528,3.514c-0.286,0-0.575-0.034-0.86-0.102c-1.596-0.383-2.755-1.867-2.755-3.531v-2.895
	c0-0.252-0.134-0.506-0.429-0.506c-0.285,0-0.518,0.228-0.518,0.506v1.423c0,1.352-0.847,2.563-2.062,2.945
	c-0.67,0.212-1.378,0.189-1.981-0.027v3.196c0,0.805-0.315,1.562-0.888,2.131c-0.57,0.567-1.328,0.88-2.135,0.88
	c-0.32,0-0.642-0.05-0.958-0.148c-1.208-0.381-2.02-1.565-2.02-2.947v-6.95c0-0.547-0.488-1.008-1.066-1.008h-11.1
	c-0.543,0-1.073-0.223-1.452-0.614C1.202,32.947,1,32.435,1.014,31.895c0.257-10.211,4.303-19.917,11.39-27.328
	c0.744-0.777,2.106-0.79,2.876-0.028l26.141,25.985C41.999,31.098,42.171,31.953,41.861,32.705L41.861,32.705z M13.871,5.961
	C7.107,13.002,3.259,22.232,3.014,31.947h11.119c1.691,0,3.068,1.35,3.068,3.011v6.95c0,0.419,0.19,0.9,0.618,1.035
	c0.402,0.127,0.808,0.034,1.085-0.241c0.19-0.189,0.295-0.441,0.295-0.709v-6.031c0-0.552,0.448-1.001,1.001-1.001
	c0.553,0,1,0.449,1,1.001c0,0.672,0.677,1.174,1.381,0.952c0.384-0.12,0.662-0.557,0.662-1.035v-1.423
	c0-1.384,1.129-2.509,2.518-2.509c1.362,0,2.429,1.102,2.429,2.509v2.895c0,0.725,0.535,1.42,1.221,1.584
	c0.986,0.238,1.923-0.503,1.923-1.465v-2.512c0-1.661,1.354-3.011,3.021-3.011h5.646L13.871,5.961L13.871,5.961z M12.507,29.008
	c-1.933,0-3.501-1.569-3.501-3.506s1.568-3.506,3.501-3.506s3.5,1.57,3.5,3.506S14.44,29.008,12.507,29.008L12.507,29.008z
	 M24.51,28.005c-1.381,0-2.501-1.122-2.501-2.505c0-1.382,1.12-2.504,2.501-2.504s2.5,1.123,2.5,2.504
	C27.01,26.883,25.891,28.005,24.51,28.005L24.51,28.005z M16.007,17.99c-1.105,0-2-0.89-2-1.988c0-1.097,0.895-1.987,2-1.987
	c1.105,0,2.001,0.89,2.001,1.987C18.009,17.1,17.112,17.99,16.007,17.99L16.007,17.99z"/>
</svg>
