<svg version="1.1" class="icon-container" xmlns="http://www.w3.org/2000/svg" xmlns:xlink="http://www.w3.org/1999/xlink" x="0px" y="0px"
	 width="42px" height="48px" viewBox="0 0 42 48" enable-background="new 0 0 42 48" xml:space="preserve">
<path class="icon-svg" d="M34,22.997c0-2.757-2.244-5-5.001-5c-1.641,0-3.088,0.805-3.999,2.031c-0.912-1.226-2.358-2.031-4-2.031
	c-1.641,0-3.088,0.805-4,2.031c-0.912-1.226-2.358-2.031-4-2.031c-2.757,0-5.001,2.242-5.001,5c0,2.568,1.957,4.667,4.454,4.942
	c-0.286,0.629-0.455,1.321-0.455,2.056c0,2.569,1.957,4.667,4.454,4.943C16.169,35.567,16,36.26,16,36.994
	c0,2.756,2.242,4.998,5,4.998c2.757,0,5-2.242,5-4.998c0-0.734-0.169-1.427-0.453-2.056c2.497-0.276,4.454-2.374,4.454-4.943
	c0-0.734-0.169-1.427-0.455-2.056C32.044,27.664,34,25.565,34,22.997z M21,19.997c1.653,0,3,1.345,3,3c0,1.653-1.347,2.998-3,2.998
	c-1.654,0-3-1.345-3-2.998C18,21.342,19.346,19.997,21,19.997z M13.001,25.995c-1.655,0-3.001-1.345-3.001-2.998
	c0-1.655,1.346-3,3.001-3c1.653,0,3,1.345,3,3C16,24.65,14.654,25.995,13.001,25.995z M17,32.994c-1.655,0-3-1.346-3-2.999
	c0-1.654,1.345-3,3-3c1.653,0,3,1.346,3,3C20,31.648,18.654,32.994,17,32.994z M21,39.992c-1.654,0-3-1.345-3-2.998
	c0-1.655,1.346-3,3-3c1.653,0,3,1.345,3,3C24,38.647,22.653,39.992,21,39.992z M25,32.994c-1.654,0-3-1.346-3-2.999
	c0-1.654,1.346-3,3-3s2.999,1.346,2.999,3C27.999,31.648,26.654,32.994,25,32.994z M28.999,25.995c-1.653,0-2.999-1.345-2.999-2.998
	c0-1.655,1.346-3,2.999-3c1.655,0,3.002,1.345,3.002,3C32.001,24.65,30.654,25.995,28.999,25.995z M15,9.998c2.755,0,5,2.243,5,5
	c0,0.552,0.448,1,1,1s1-0.448,1-1c0-1.355-0.393-2.616-1.062-3.689C20.971,11.21,21,11.108,21,10.998c0-1.654,1.346-3,3-3
	c0.553,0,1-0.447,1-1C25,6.447,24.553,6,24,6c-2.218,0-4.08,1.46-4.732,3.462C18.084,8.548,16.606,7.999,15,7.999
	c-0.553,0-1,0.448-1,1C14,9.552,14.447,9.998,15,9.998z"/>
</svg>
