<svg version="1.1"  class="icon-container" xmlns="http://www.w3.org/2000/svg" xmlns:xlink="http://www.w3.org/1999/xlink" x="0px" y="0px"
	 width="42px" height="48px" viewBox="0 0 42 48" enable-background="new 0 0 42 48" xml:space="preserve">
<g>
	<path class="icon-svg" d="M24.576,22.897c0.138,0.065,0.282,0.094,0.423,0.094c0.377,0,0.737-0.213,0.908-0.577l7-14.998
		c0.231-0.5,0.017-1.095-0.484-1.329c-0.5-0.233-1.096-0.015-1.329,0.484l-7,14.997C23.86,22.069,24.077,22.665,24.576,22.897z"/>
	<path class="icon-svg" d="M20.578,22.897c0.136,0.065,0.28,0.094,0.421,0.094c0.377,0,0.738-0.213,0.908-0.577l7-14.998
		c0.234-0.5,0.018-1.095-0.484-1.329c-0.498-0.233-1.093-0.015-1.328,0.484l-7,14.997C19.86,22.069,20.077,22.665,20.578,22.897z"/>
	<path class="icon-svg" d="M36.758,18.129c-0.078-0.03-0.156-0.028-0.235-0.036c-0.795-1.986-2.537-3.527-4.727-3.971
		c-0.541-0.113-1.068,0.24-1.179,0.781c-0.109,0.542,0.24,1.069,0.781,1.179C33.485,16.505,35,18.36,35,20.491
		c0,0.553,0.447,1,0.999,1c0.554,0,1.001-0.447,1.001-1c0-0.037-0.009-0.072-0.011-0.109c1.555,0.697,2.012,1.319,2.012,1.61
		c0,1.356-6.354,3.999-18.001,3.999c-11.647,0-18-2.643-18-3.999c0-0.299,0.49-0.945,2.108-1.654C5.039,20.713,5,21.1,5,21.491
		C5,22.043,5.447,22.492,6,22.492c0.552,0,1-0.449,1-1.001c0-2.313,1.805-4.28,4.11-4.479c0.484-0.042,0.869-0.425,0.91-0.91
		c0.199-2.305,2.166-4.108,4.48-4.108c1.273,0,2.494,0.547,3.349,1.502c0.323,0.363,0.862,0.439,1.275,0.183
		c0.425-0.266,0.885-0.458,1.364-0.569c0.538-0.125,0.872-0.664,0.747-1.201c-0.125-0.538-0.664-0.873-1.2-0.747
		c-0.437,0.101-0.86,0.248-1.267,0.438c-1.179-1.029-2.695-1.606-4.268-1.606c-3.072,0-5.724,2.205-6.354,5.145
		c-1.643,0.352-3.037,1.346-3.965,2.68c-3.431,1.07-5.183,2.472-5.183,4.174c0,11.025,8.973,19.996,20.001,19.996
		s20.001-8.971,20.001-19.996C41.001,20.454,39.573,19.155,36.758,18.129z M21,39.988c-8.926,0-16.334-6.536-17.741-15.069
		c3.524,2.025,10.662,3.07,17.741,3.07s14.217-1.045,17.74-3.07C37.334,33.452,29.926,39.988,21,39.988z"/>
</g>
</svg>
