<svg version="1.1"  class="icon-container" xmlns="http://www.w3.org/2000/svg" xmlns:xlink="http://www.w3.org/1999/xlink" x="0px" y="0px"
	 width="42px" height="48px" viewBox="0 0 42 48" enable-background="new 0 0 42 48" xml:space="preserve">
<path class="icon-svg" d="M38.544,14.497l-7.083-7.068c-1.034-1.032-2.469-1.545-3.936-1.4c-1.496,0.145-2.834,0.946-3.675,2.196l-8.585,12.767
	c-0.266,0.397-0.213,0.928,0.125,1.266l8.299,8.283c0.193,0.191,0.448,0.29,0.706,0.29c0.193,0,0.387-0.056,0.557-0.168
	l12.794-8.567c1.254-0.839,2.056-2.177,2.202-3.672C40.091,16.96,39.579,15.529,38.544,14.497z M36.632,20.435l-12.11,8.109
	l-7.136-7.119L25.51,9.341c0.508-0.751,1.312-1.233,2.209-1.321c0.876-0.087,1.72,0.216,2.329,0.825l7.083,7.067
	c0.61,0.607,0.91,1.453,0.825,2.318C37.87,19.125,37.388,19.929,36.632,20.435z"/>
<path class="icon-svg" d="M22.355,32.001l-2.108,2.104c-1.161,1.158-3.047,1.158-4.207,0l-4.216-4.207c-0.561-0.561-0.87-1.304-0.87-2.097
	c0-0.792,0.309-1.536,0.87-2.096l2.108-2.104c0.391-0.389,0.391-1.023,0.001-1.414c-0.391-0.389-1.023-0.393-1.414-0.001
	l-2.108,2.104c-0.94,0.938-1.458,2.186-1.458,3.512c0,1.327,0.518,2.574,1.458,3.513l4.216,4.207
	c0.969,0.968,2.242,1.451,3.516,1.451c1.274,0,2.547-0.483,3.516-1.451l2.108-2.104c0.391-0.391,0.391-1.023,0.001-1.414
	C23.381,31.61,22.747,31.61,22.355,32.001z"/>
<circle cx="9.483" cy="36.5" r="1.5"/>
<circle cx="8.483" cy="41.5" r="1.501"/>
<circle cx="4.483" cy="37.499" r="1.5"/>
</svg>
